<mxfile host="65bd71144e">
    <diagram id="TlOV8Sbyv_uNDK6ATMdz" name="ページ1">
        <mxGraphModel dx="1100" dy="421" grid="1" gridSize="10" guides="1" tooltips="1" connect="1" arrows="1" fold="1" page="1" pageScale="1" pageWidth="827" pageHeight="1169" math="0" shadow="0">
            <root>
                <mxCell id="0"/>
                <mxCell id="1" parent="0"/>
                <mxCell id="4" value="Client" style="shape=umlLifeline;perimeter=lifelinePerimeter;whiteSpace=wrap;html=1;container=1;collapsible=0;recursiveResize=0;outlineConnect=0;" parent="1" vertex="1">
                    <mxGeometry x="30" y="30" width="100" height="370" as="geometry"/>
                </mxCell>
                <mxCell id="5" value="Server" style="shape=umlLifeline;perimeter=lifelinePerimeter;whiteSpace=wrap;html=1;container=1;collapsible=0;recursiveResize=0;outlineConnect=0;" parent="1" vertex="1">
                    <mxGeometry x="160" y="30" width="100" height="360" as="geometry"/>
                </mxCell>
                <mxCell id="6" value="　request" style="html=1;verticalAlign=bottom;startArrow=oval;startFill=1;endArrow=block;startSize=8;" parent="1" source="4" target="5" edge="1">
                    <mxGeometry width="60" relative="1" as="geometry">
                        <mxPoint x="380" y="220" as="sourcePoint"/>
                        <mxPoint x="160" y="220" as="targetPoint"/>
                        <Array as="points">
                            <mxPoint x="100" y="110"/>
                        </Array>
                    </mxGeometry>
                </mxCell>
                <mxCell id="7" value="return" style="html=1;verticalAlign=bottom;endArrow=open;dashed=1;endSize=8;" parent="1" source="5" target="4" edge="1">
                    <mxGeometry relative="1" as="geometry">
                        <mxPoint x="210" y="220" as="sourcePoint"/>
                        <mxPoint x="370" y="220" as="targetPoint"/>
                        <Array as="points">
                            <mxPoint x="140" y="360"/>
                        </Array>
                    </mxGeometry>
                </mxCell>
                <mxCell id="8" value="HTTPRequest&lt;br&gt;Parse" style="shape=umlLifeline;perimeter=lifelinePerimeter;whiteSpace=wrap;html=1;container=1;collapsible=0;recursiveResize=0;outlineConnect=0;" vertex="1" parent="1">
                    <mxGeometry x="290" y="30" width="100" height="360" as="geometry"/>
                </mxCell>
                <mxCell id="10" value="request" style="html=1;verticalAlign=bottom;startArrow=oval;startFill=1;endArrow=block;startSize=8;" edge="1" parent="8">
                    <mxGeometry width="60" relative="1" as="geometry">
                        <mxPoint x="-80" y="100" as="sourcePoint"/>
                        <mxPoint x="50" y="100" as="targetPoint"/>
                        <Array as="points">
                            <mxPoint x="-59.5" y="100"/>
                        </Array>
                    </mxGeometry>
                </mxCell>
                <mxCell id="9" value="HTTTPResponse" style="shape=umlLifeline;perimeter=lifelinePerimeter;whiteSpace=wrap;html=1;container=1;collapsible=0;recursiveResize=0;outlineConnect=0;" vertex="1" parent="1">
                    <mxGeometry x="420" y="30" width="100" height="360" as="geometry"/>
                </mxCell>
                <mxCell id="11" value="Parse" style="html=1;verticalAlign=bottom;startArrow=oval;startFill=1;endArrow=block;startSize=8;" edge="1" parent="9">
                    <mxGeometry width="60" relative="1" as="geometry">
                        <mxPoint x="-80" y="120" as="sourcePoint"/>
                        <mxPoint x="50" y="120" as="targetPoint"/>
                        <Array as="points">
                            <mxPoint x="-59.5" y="120"/>
                        </Array>
                    </mxGeometry>
                </mxCell>
                <mxCell id="12" value="make response" style="html=1;verticalAlign=bottom;endArrow=open;dashed=1;endSize=8;" edge="1" parent="9" target="5">
                    <mxGeometry relative="1" as="geometry">
                        <mxPoint x="50" y="270" as="sourcePoint"/>
                        <mxPoint x="-80" y="270" as="targetPoint"/>
                        <Array as="points">
                            <mxPoint x="-20" y="320"/>
                        </Array>
                    </mxGeometry>
                </mxCell>
            </root>
        </mxGraphModel>
    </diagram>
</mxfile>